<?xml version="1.0" encoding="UTF-8" standalone="no"?>
<svg
   id="Logo"
   viewBox="0 0 1000 213.68"
   version="1.1"
   sodipodi:docname="laureate_logo.svg"
   inkscape:version="1.4 (e7c3feb1, 2024-10-09)"
   xmlns:inkscape="http://www.inkscape.org/namespaces/inkscape"
   xmlns:sodipodi="http://sodipodi.sourceforge.net/DTD/sodipodi-0.dtd"
   xmlns="http://www.w3.org/2000/svg"
   xmlns:svg="http://www.w3.org/2000/svg">
  <sodipodi:namedview
     id="namedview8"
     pagecolor="#505050"
     bordercolor="#eeeeee"
     borderopacity="1"
     inkscape:showpageshadow="0"
     inkscape:pageopacity="0"
     inkscape:pagecheckerboard="0"
     inkscape:deskcolor="#505050"
     inkscape:zoom="0.2587782"
     inkscape:cx="498.4964"
     inkscape:cy="183.55488"
     inkscape:window-width="1512"
     inkscape:window-height="858"
     inkscape:window-x="0"
     inkscape:window-y="38"
     inkscape:window-maximized="1"
     inkscape:current-layer="Logo" />
  <defs
     id="defs1">
    <style
       id="style1">
      .cls-1 {
        fill: #fff;
      }
    </style>
  </defs>
  <g
     id="g9"
     style="fill:#eb5f46;fill-opacity:1.0">
    <g
       id="g2"
       style="fill:#eb5f46;fill-opacity:1.0">
      <path
         class="cls-1"
         d="M103.68,87.8c-19.12,19.97-34.3,47.92-37.47,86.9,30.79-2.51,54.7-12.51,73.23-26.02h-35.76v-60.88Z"
         id="path1"
         style="fill:#eb5f46;fill-opacity:1.0" />
      <path
         class="cls-1"
         d="M122.29,71.48v60.28h36.23c8.53-9.12,15.43-18.92,20.99-28.62,18.78-32.69,22.41-64.16,22.41-64.16,0,0-42.2,4.87-79.64,32.5Z"
         id="path2"
         style="fill:#eb5f46;fill-opacity:1.0" />
    </g>
    <path
       class="cls-1"
       d="M362.32,64.82l-36.71,82.63v-15.58h-41.2v-67.05h-19.24v82.63h80.03l7.36-17.71h38.27l7.36,17.71h20.07l-37.07-82.63h-18.89ZM358.61,115.22l13.1-31.5,13.1,31.5h-26.2Z"
       id="path3"
       style="fill:#eb5f46;fill-opacity:1.0" />
    <path
       class="cls-1"
       d="M482.14,110.5c0,7.79-1.61,13.44-4.84,16.94-3.23,3.5-7.75,5.25-13.57,5.25s-10.23-1.75-13.46-5.25c-3.23-3.5-4.84-9.15-4.84-16.94v-45.68h-19.24v46.15c0,12.2,3.31,21.56,9.92,28.09,6.61,6.53,15.78,9.8,27.5,9.8s20.78-3.26,27.39-9.8c6.61-6.53,9.92-15.9,9.92-28.09v-46.15h-18.77v45.68Z"
       id="path4"
       style="fill:#eb5f46;fill-opacity:1.0" />
    <path
       class="cls-1"
       d="M574.8,120.83c5.35-2.32,9.48-5.7,12.39-10.15,2.91-4.45,4.37-9.78,4.37-16s-1.46-11.45-4.37-15.94c-2.91-4.49-7.04-7.93-12.39-10.33-5.35-2.4-11.73-3.6-19.12-3.6h-35.77v82.63h19.24v-23.14h16.53c.28,0,.56-.01.84-.02l16.04,23.15h20.54l-18.41-26.57s.08-.03.12-.05ZM567.84,105.3c-2.99,2.52-7.4,3.78-13.22,3.78h-15.46v-28.68h15.46c5.82,0,10.23,1.24,13.22,3.72,2.99,2.48,4.49,6,4.49,10.56s-1.5,8.11-4.49,10.62Z"
       id="path5"
       style="fill:#eb5f46;fill-opacity:1.0" />
    <polygon
       class="cls-1"
       points="625.68 112.98 664.04 112.98 664.04 97.99 625.68 97.99 625.68 80.16 669.12 80.16 669.12 64.82 606.67 64.82 606.67 147.45 670.65 147.45 670.65 132.1 625.68 132.1 625.68 112.98"
       id="polygon5"
       style="fill:#eb5f46;fill-opacity:1.0" />
    <path
       class="cls-1"
       d="M711.73,64.82l-36.71,82.63h19.6l7.36-17.71h38.27l7.36,17.71h20.07l-37.07-82.63h-18.89ZM708.01,115.22l13.1-31.5,13.1,31.5h-26.2Z"
       id="path6"
       style="fill:#eb5f46;fill-opacity:1.0" />
    <polygon
       class="cls-1"
       points="766.97 80.4 793.41 80.4 793.41 147.45 812.54 147.45 812.54 80.4 838.98 80.4 838.98 64.82 766.97 64.82 766.97 80.4"
       id="polygon6"
       style="fill:#eb5f46;fill-opacity:1.0" />
    <polygon
       class="cls-1"
       points="868.25 112.98 906.62 112.98 906.62 97.99 868.25 97.99 868.25 80.16 911.69 80.16 911.69 64.82 849.25 64.82 849.25 147.45 913.23 147.45 913.23 132.1 868.25 132.1 868.25 112.98"
       id="polygon7"
       style="fill:#eb5f46;fill-opacity:1.0" />
    <path
       class="cls-1"
       d="M938.08,77.96c.97-.81,1.45-1.94,1.45-3.38s-.48-2.51-1.45-3.35c-.97-.83-2.31-1.25-4.02-1.25h-5.41v13.52h2.3v-4.33h3.11c.19,0,.38,0,.56-.02l2.82,4.34h2.33l-3.08-4.75c.53-.2.99-.46,1.39-.79ZM933.89,77.29h-2.97v-5.37h2.97c1.08,0,1.92.23,2.52.69.6.46.9,1.12.9,1.98s-.3,1.52-.9,1.99c-.6.47-1.44.71-2.52.71Z"
       id="path7"
       style="fill:#eb5f46;fill-opacity:1.0" />
    <path
       class="cls-1"
       d="M944.48,72c-.6-1.43-1.43-2.69-2.5-3.77-1.07-1.08-2.33-1.92-3.79-2.52-1.45-.6-3.03-.9-4.71-.9s-3.26.3-4.71.91-2.72,1.46-3.8,2.55c-1.08,1.09-1.93,2.36-2.53,3.8-.61,1.44-.91,3-.91,4.66s.3,3.22.9,4.66c.6,1.44,1.44,2.71,2.52,3.8,1.08,1.09,2.34,1.94,3.79,2.55,1.44.61,3.01.91,4.7.91s3.26-.3,4.7-.91c1.44-.61,2.71-1.46,3.8-2.55,1.09-1.09,1.94-2.37,2.55-3.82.61-1.45.91-3.02.91-4.71s-.3-3.25-.9-4.68ZM943.01,80.78c-.52,1.27-1.25,2.38-2.2,3.33s-2.05,1.69-3.31,2.23c-1.26.54-2.63.81-4.09.81s-2.83-.26-4.09-.79c-1.26-.53-2.35-1.27-3.28-2.21-.92-.95-1.64-2.05-2.16-3.31-.52-1.26-.78-2.62-.78-4.09s.26-2.82.78-4.07c.52-1.25,1.24-2.35,2.16-3.31.92-.96,2.02-1.7,3.3-2.23,1.27-.53,2.65-.79,4.14-.79s2.86.27,4.11.79c1.25.53,2.34,1.26,3.26,2.18.92.92,1.64,2.02,2.16,3.28.52,1.26.78,2.62.78,4.09s-.26,2.83-.78,4.11Z"
       id="path8"
       style="fill:#eb5f46;fill-opacity:1.0" />
    <g
       id="g8"
       style="fill:#eb5f46;fill-opacity:1.0" />
  </g>
</svg>
